<svg width="124" height="41" viewBox="0 0 124 41" fill="none" xmlns="http://www.w3.org/2000/svg">
<path d="M7.51128 28.1646C5.38328 28.1646 3.85528 27.7166 2.92728 26.8206C1.99928 25.9246 1.53528 24.6286 1.53528 22.9326V16.5966C1.53528 14.9006 1.99928 13.6046 2.92728 12.7086C3.85528 11.8126 5.38328 11.3646 7.51128 11.3646H13.1273V14.0046H7.51128C6.63128 14.0046 5.97528 14.2126 5.54328 14.6286C5.12728 15.0446 4.91928 15.7006 4.91928 16.5966V18.4446H12.0713V21.0846H4.91928V22.9326C4.91928 23.8126 5.12728 24.4686 5.54328 24.9006C5.97528 25.3166 6.63128 25.5246 7.51128 25.5246H13.1753V28.1646H7.51128ZM25.6611 11.3646H33.0531C34.8131 11.3646 36.1571 11.7486 37.0851 12.5166C38.0291 13.2846 38.5011 14.3966 38.5011 15.8526C38.5011 16.6526 38.2611 17.3726 37.7811 18.0126C37.3011 18.6526 36.6051 19.0926 35.6931 19.3326C36.6851 19.5246 37.4851 19.9886 38.0931 20.7246C38.7011 21.4446 39.0051 22.3886 39.0051 23.5566C39.0051 24.9806 38.5011 26.1086 37.4931 26.9406C36.5011 27.7566 35.1411 28.1646 33.4131 28.1646H25.6611V11.3646ZM32.9811 18.1326C33.6211 18.1326 34.1331 17.9486 34.5171 17.5806C34.9171 17.1966 35.1171 16.6926 35.1171 16.0686C35.1171 15.4446 34.9171 14.9486 34.5171 14.5806C34.1331 14.1966 33.6211 14.0046 32.9811 14.0046H29.0451V18.1326H32.9811ZM32.6931 25.5246C33.6851 25.5246 34.4211 25.3326 34.9011 24.9486C35.3811 24.5486 35.6211 23.9486 35.6211 23.1486C35.6211 22.3486 35.3811 21.7566 34.9011 21.3726C34.4211 20.9726 33.6851 20.7726 32.6931 20.7726H29.0451V25.5246H32.6931ZM51.7142 11.3646H57.9542C59.8422 11.3646 61.3302 11.6366 62.4182 12.1806C63.5222 12.7246 64.3142 13.6046 64.7942 14.8206C65.2902 16.0206 65.5382 17.6686 65.5382 19.7646C65.5382 21.8606 65.2902 23.5166 64.7942 24.7326C64.3142 25.9326 63.5222 26.8046 62.4182 27.3486C61.3302 27.8926 59.8422 28.1646 57.9542 28.1646H51.7142V11.3646ZM57.9542 25.5246C59.0102 25.5246 59.8422 25.3406 60.4502 24.9726C61.0582 24.6046 61.4902 24.0046 61.7462 23.1726C62.0182 22.3406 62.1542 21.2046 62.1542 19.7646C62.1542 18.3246 62.0182 17.1886 61.7462 16.3566C61.4902 15.5246 61.0582 14.9246 60.4502 14.5566C59.8422 14.1886 59.0102 14.0046 57.9542 14.0046H55.0982V25.5246H57.9542Z" fill="white"/>
<g clip-path="url(#clip0_19_42)">
<path d="M100.064 2.23629L121.492 11.6531C121.776 11.7767 122.023 11.9859 122.202 12.2562C122.381 12.5265 122.485 12.8468 122.503 13.1794C122.529 13.5485 122.446 13.9172 122.264 14.2305C121.943 14.6723 121.513 15.0054 121.024 15.1904C113.874 18.3245 106.901 21.4875 99.7333 24.6216C98.9977 24.8392 98.2185 24.8074 97.5001 24.5304L76.0813 15.1136C75.6623 14.9398 75.322 14.5956 75.1324 14.1537C75.0444 13.9409 74.9993 13.7102 75 13.4769C74.9997 13.0499 75.1173 12.6326 75.3376 12.2792C75.558 11.9257 75.8709 11.6524 76.2358 11.4947L97.5354 2.25069C97.8827 2.11139 98.2471 2.0289 98.6167 2.00591C99.1085 1.97685 99.6007 2.05518 100.064 2.23629Z" stroke="white" stroke-width="1.5" stroke-miterlimit="10"/>
<mask id="path-3-inside-1_19_42" fill="white">
<path d="M93.494 6.67465L91.1262 7.70769C90.9112 7.80146 90.8069 8.06705 90.8932 8.3009L90.8948 8.30535C90.9811 8.5392 91.2253 8.65275 91.4402 8.55898L93.8081 7.52594C94.023 7.43217 94.1273 7.16658 94.041 6.93273L94.0394 6.92828C93.9531 6.69443 93.7089 6.58088 93.494 6.67465Z"/>
</mask>
<path d="M93.494 6.67465L91.1262 7.70769C90.9112 7.80146 90.8069 8.06705 90.8932 8.3009L90.8948 8.30535C90.9811 8.5392 91.2253 8.65275 91.4402 8.55898L93.8081 7.52594C94.023 7.43217 94.1273 7.16658 94.041 6.93273L94.0394 6.92828C93.9531 6.69443 93.7089 6.58088 93.494 6.67465Z" fill="#272525"/>
<path d="M91.4723 8.64588L93.8401 7.61284L93.1479 5.73646L90.7801 6.7695L91.4723 8.64588ZM93.8401 7.61284C93.497 7.76255 93.2075 7.55772 93.1228 7.32816L94.9559 6.5284C94.6987 5.83114 93.9209 5.3992 93.1479 5.73646L93.8401 7.61284ZM93.1228 7.32816L93.1245 7.33262L94.9576 6.53285L94.9559 6.5284L93.1228 7.32816ZM93.1245 7.33262C93.0398 7.10306 93.1188 6.73746 93.4619 6.58775L94.1542 8.46414C94.9272 8.12688 95.2148 7.23011 94.9576 6.53285L93.1245 7.33262ZM93.4619 6.58775L91.0941 7.62079L91.7863 9.49717L94.1542 8.46414L93.4619 6.58775ZM91.0941 7.62079C91.4373 7.47108 91.7267 7.67591 91.8114 7.90547L89.9783 8.70524C90.2355 9.40249 91.0133 9.83443 91.7863 9.49717L91.0941 7.62079ZM91.8114 7.90547L91.8098 7.90102L89.9766 8.70078L89.9783 8.70524L91.8114 7.90547ZM91.8098 7.90102C91.8945 8.13057 91.8154 8.49617 91.4723 8.64588L90.7801 6.7695C90.007 7.10675 89.7194 8.00353 89.9766 8.70078L91.8098 7.90102Z" fill="white" mask="url(#path-3-inside-1_19_42)"/>
<mask id="path-5-inside-2_19_42" fill="white">
<path d="M89.7664 8.30388L80.2469 12.4571C80.032 12.5508 79.9277 12.8163 80.0139 13.05L80.0155 13.0545C80.1018 13.2882 80.3459 13.4016 80.5608 13.3079L90.0803 9.15469C90.2952 9.06093 90.3995 8.79545 90.3133 8.56174L90.3116 8.55728C90.2254 8.32357 89.9813 8.21012 89.7664 8.30388Z"/>
</mask>
<path d="M89.7664 8.30388L80.2469 12.4571C80.032 12.5508 79.9277 12.8163 80.0139 13.05L80.0155 13.0545C80.1018 13.2882 80.3459 13.4016 80.5608 13.3079L90.0803 9.15469C90.2952 9.06093 90.3995 8.79545 90.3133 8.56174L90.3116 8.55728C90.2254 8.32357 89.9813 8.21012 89.7664 8.30388Z" fill="#272525"/>
<path d="M80.593 13.3952L90.1125 9.24208L89.4203 7.36569L79.9008 11.5189L80.593 13.3952ZM90.1125 9.24208C89.7697 9.39162 89.48 9.18729 89.3951 8.95717L91.2282 8.1574C90.9709 7.45986 90.1929 7.02862 89.4203 7.36569L90.1125 9.24208ZM89.3951 8.95717L89.3967 8.96162L91.2299 8.16186L91.2282 8.1574L89.3951 8.95717ZM89.3967 8.96162C89.3118 8.7315 89.3914 8.36604 89.7342 8.2165L90.4264 10.0929C91.199 9.75581 91.4872 8.8594 91.2299 8.16186L89.3967 8.96162ZM89.7342 8.2165L80.2147 12.3697L80.9069 14.2461L90.4264 10.0929L89.7342 8.2165ZM80.2147 12.3697C80.5575 12.2201 80.8472 12.4245 80.9321 12.6546L79.099 13.4543C79.3563 14.1519 80.1343 14.5831 80.9069 14.2461L80.2147 12.3697ZM80.9321 12.6546L80.9305 12.6501L79.0973 13.4499L79.099 13.4543L80.9321 12.6546ZM80.9305 12.6501C81.0154 12.8802 80.9358 13.2457 80.593 13.3952L79.9008 11.5189C79.1282 11.8559 78.84 12.7523 79.0973 13.4499L80.9305 12.6501Z" fill="white" mask="url(#path-5-inside-2_19_42)"/>
<path d="M116.081 17.5806V30.0883" stroke="white" stroke-width="1.5" stroke-miterlimit="10"/>
<path d="M116.081 33.4912C116.876 33.4912 117.52 32.7907 117.52 31.9266C117.52 31.0624 116.876 30.3619 116.081 30.3619C115.286 30.3619 114.642 31.0624 114.642 31.9266C114.642 32.7907 115.286 33.4912 116.081 33.4912Z" stroke="white" stroke-width="1.5" stroke-miterlimit="10"/>
<path d="M118.769 39.6107C118.71 39.6707 118.64 39.717 118.564 39.7467C118.489 39.7764 118.408 39.7889 118.327 39.7835C116.213 39.5291 115.388 36.203 115.388 33.7936C115.567 33.6338 115.782 33.5278 116.01 33.4864C116.267 33.4515 116.527 33.4964 116.761 33.616C117.034 34.261 117.381 34.8657 117.793 35.4159C118.508 36.4622 120.384 37.5133 120.441 37.5421C120.499 37.5939 120.535 37.668 120.543 37.7485C120.545 37.7894 120.54 37.8303 120.526 37.8685C120.512 37.9067 120.491 37.9411 120.464 37.9692L118.769 39.6107Z" stroke="white" stroke-width="1.5" stroke-miterlimit="10"/>
<path d="M112.665 19.0541V27.6933C112.665 28.5888 112.427 29.4653 111.981 30.2179C111.771 30.5438 111.513 30.8293 111.217 31.0626L110.679 31.4274C109.632 32.184 108.496 32.7844 107.302 33.2129L107.183 33.2513C106.257 33.5915 105.308 33.8562 104.345 34.0432L102.403 34.4224C101.932 34.5142 101.456 34.5799 100.978 34.6191C100.316 34.6719 99.6538 34.6959 98.9874 34.6767L96.6835 34.6191C95.2951 34.5845 93.9143 34.3849 92.5657 34.024L92.0096 33.8752C90.4238 33.4515 88.8903 32.8231 87.4417 32.0034C86.7469 31.6085 86.1293 31.0706 85.6233 30.4195C85.0089 29.6239 84.6825 28.612 84.7053 27.5733L84.8465 21.5115" stroke="white" stroke-width="1.5" stroke-miterlimit="10"/>
</g>
<defs>
<clipPath id="clip0_19_42">
<rect width="50" height="39.8964" fill="white" transform="translate(74 0.948187)"/>
</clipPath>
</defs>
</svg>
